<?xml version="1.0" encoding="UTF-8" standalone="no"?>
<!-- Created with Inkscape (http://www.inkscape.org/) -->

<svg
   xmlns:dc="http://purl.org/dc/elements/1.1/"
   xmlns:cc="http://creativecommons.org/ns#"
   xmlns:rdf="http://www.w3.org/1999/02/22-rdf-syntax-ns#"
   xmlns:svg="http://www.w3.org/2000/svg"
   xmlns="http://www.w3.org/2000/svg"
   xmlns:sodipodi="http://sodipodi.sourceforge.net/DTD/sodipodi-0.dtd"
   xmlns:inkscape="http://www.inkscape.org/namespaces/inkscape"
   width="210mm"
   height="297mm"
   viewBox="0 0 744.09448819 1052.3622047"
   id="svg2"
   version="1.1"
   inkscape:version="0.91 r13725"
   sodipodi:docname="dessin.svg">
  <defs
     id="defs4" />
  <sodipodi:namedview
     id="base"
     pagecolor="#ffffff"
     bordercolor="#666666"
     borderopacity="1.0"
     inkscape:pageopacity="0.0"
     inkscape:pageshadow="2"
     inkscape:zoom="0.35"
     inkscape:cx="-67.857143"
     inkscape:cy="520"
     inkscape:document-units="px"
     inkscape:current-layer="layer1"
     showgrid="false"
     inkscape:window-width="1920"
     inkscape:window-height="1027"
     inkscape:window-x="-8"
     inkscape:window-y="-8"
     inkscape:window-maximized="1" />
  <metadata
     id="metadata7">
    <rdf:RDF>
      <cc:Work
         rdf:about="">
        <dc:format>image/svg+xml</dc:format>
        <dc:type
           rdf:resource="http://purl.org/dc/dcmitype/StillImage" />
        <dc:title></dc:title>
      </cc:Work>
    </rdf:RDF>
  </metadata>
  <g
     inkscape:label="Calque 1"
     inkscape:groupmode="layer"
     id="layer1">
    <rect
       style="opacity:1;fill:none;stroke:#000000;stroke-width:1;stroke-miterlimit:4;stroke-dasharray:none;stroke-opacity:1"
       id="rect4136"
       width="442.85715"
       height="434.28571"
       x="94.285713"
       y="255.21935" />
    <rect
       style="opacity:1;fill:none;stroke:#000000;stroke-width:1;stroke-miterlimit:4;stroke-dasharray:none;stroke-opacity:1"
       id="rect4138"
       width="194.28572"
       height="225.71428"
       x="242.85715"
       y="340.93362" />
    <path
       style="opacity:1;fill:none;stroke:#000000;stroke-width:2.85714293;stroke-miterlimit:4;stroke-dasharray:none;stroke-opacity:1"
       d="m 243.57143,454.07649 0,-111.42857 95.71428,0 95.71429,0 0,111.42857 0,111.42857 -95.71429,0 -95.71428,0 0,-111.42857 z"
       id="path4140"
       inkscape:connector-curvature="0" />
    <path
       style="opacity:1;fill:none;stroke:#000000;stroke-width:2.85714293;stroke-miterlimit:4;stroke-dasharray:none;stroke-opacity:1"
       d="m 95,472.64792 0,-215.71429 220,0 220,0 0,215.71429 0,215.71428 -220,0 -220,0 0,-215.71428 z m 342.85714,-18.57143 0,-114.28571 -98.57143,0 -98.57142,0 0,114.28571 0,114.28571 98.57142,0 98.57143,0 0,-114.28571 z"
       id="path4142"
       inkscape:connector-curvature="0" />
    <path
       style="opacity:1;fill:none;stroke:#000000;stroke-width:2.85714293;stroke-miterlimit:4;stroke-dasharray:none;stroke-opacity:1"
       d="m 97.857143,472.64792 0,-212.85714 217.142857,0 217.14286,0 0,212.85714 0,212.85714 -217.14286,0 -217.142857,0 0,-212.85714 z m 342.857147,-18.57143 0,-117.14286 -101.42858,0 -101.42857,0 0,117.14286 0,117.14286 101.42857,0 101.42858,0 0,-117.14286 z"
       id="path4144"
       inkscape:connector-curvature="0" />
    <path
       style="opacity:1;fill:#d35f5f;stroke:#000000;stroke-width:2.85714293;stroke-miterlimit:4;stroke-dasharray:none;stroke-opacity:1"
       d="m 100.71429,472.64792 0,-210 214.28571,0 214.28571,0 0,210 0,210 -214.28571,0 -214.28571,0 0,-210 z m 342.85714,-18.57143 0,-120 -104.28572,0 -104.28571,0 0,120 0,120 104.28571,0 104.28572,0 0,-120 z"
       id="path4146"
       inkscape:connector-curvature="0" />
  </g>
</svg>
